
		<svg width="3158.525498708102" height="1595.3689745526938" xmlns="http://www.w3.org/2000/svg" xmlns:xlink="http://www.w3.org/1999/xlink" version="1.1">
            <g transform="scale(7.9262749354051) translate(10, 10)">
				<defs id="SvgjsDefs1002"/><g id="main_text" rel="mainfill" name="main_text" xmlns:name="mainText_mainfill" fill="#FFFFFF" transform="translate(0.1759999692440033, 68.98400497436523)"><path d="M5.632 62.304 c0.88 4.312 0.088 8.712 0.352 13.024 c0.264 3.432 0.352 6.864 0.088 10.384 c-0.088 1.584 -0.792 2.376 -2.552 2.376 c-2.376 0 -3.344 -0.528 -3.432 -2.464 c0 -2.288 0.176 -4.576 0.528 -6.864 c0.352 -2.816 -0.176 -5.544 -0.44 -8.272 c-0.088 -1.408 -0.352 -2.64 0.352 -3.96 c0.088 -0.176 0.176 -0.44 0.176 -0.704 c-0.352 -2.728 -0.264 -5.544 -0.264 -8.36 c0 -3.608 -0.176 -7.304 -0.088 -10.912 l0 -4.4 c0.088 -1.936 0.792 -2.464 3.256 -2.816 c1.76 -0.264 1.672 1.056 2.024 2.112 c2.112 5.72 3.168 11.792 5.28 17.512 c0.968 2.64 1.496 5.544 2.024 8.36 c0.528 2.552 1.76 4.752 2.2 7.392 c0.352 -4.488 2.552 -8.448 3.344 -12.76 c0.616 -3.52 2.024 -7.04 3.168 -10.472 c0.704 -2.024 0.792 -4.136 1.232 -6.248 c0.352 -1.584 0.88 -3.08 1.584 -4.576 s1.936 -1.76 3.344 -1.496 c1.496 0.264 1.848 1.32 1.848 2.728 c0 6.864 0.088 13.728 0 20.592 c0 4.312 0 8.624 -0.088 13.024 c-0.088 2.464 0.44 5.192 0.44 7.832 c0 0.792 0 1.496 -0.176 2.2 c-0.264 1.584 -1.584 2.64 -3.08 2.464 s-2.904 -1.76 -2.728 -3.168 c0.44 -5.896 0 -11.792 0 -17.688 c0 -0.704 0.176 -1.496 -0.352 -2.2 c-0.704 0.264 -0.704 0.968 -0.704 1.408 c0 2.552 -1.672 4.576 -1.76 7.216 c-0.088 1.936 -1.584 3.96 -1.848 6.072 c-0.176 2.288 -0.968 4.312 -1.672 6.424 c-0.44 1.32 -1.408 1.936 -2.728 2.024 s-1.848 -0.528 -2.376 -1.76 c-1.408 -3.432 -2.2 -6.952 -2.904 -10.56 c-0.616 -3.256 -1.936 -6.424 -3.08 -9.592 c-0.44 -1.32 -0.528 -2.64 -0.968 -3.872 z M51.303999999999995 71.80799999999999 c0.44 2.552 0.88 5.368 1.584 8.096 c0.352 1.32 0.704 2.728 0.88 4.048 c0.352 1.848 -1.056 3.872 -2.552 3.96 c-1.76 0.088 -3.08 -1.496 -3.08 -3.608 c0 -0.88 -0.264 -1.848 -0.352 -2.816 c-0.088 -0.704 -0.616 -0.88 -1.232 -0.704 c-2.2 0.528 -4.4 0 -6.6 0.088 c-0.88 0.088 -0.968 0.44 -0.968 1.144 c0 1.408 -0.352 2.728 -0.792 4.048 c-0.44 1.496 -1.848 2.2 -3.432 1.76 c-1.496 -0.44 -2.2 -1.408 -2.024 -2.992 c0.792 -4.664 1.496 -9.328 2.376 -14.08 c0.176 -1.056 0.704 -2.112 0.88 -3.256 c0.968 -4.312 0.968 -8.8 2.2 -13.112 c0.88 -2.992 1.056 -6.16 1.848 -9.152 c0.352 -1.496 0.264 -3.08 0.88 -4.576 s1.672 -1.496 2.904 -1.584 s1.672 0.528 1.936 1.672 c0.968 3.52 1.496 7.128 1.936 10.736 c0.352 2.376 0.704 4.752 1.32 7.04 c0.704 2.464 1.144 5.016 1.232 7.48 c0.088 2.024 1.584 3.608 1.056 5.808 z M43.208 56.848 c-0.352 2.64 -0.616 5.192 -1.32 7.744 c-0.792 3.256 -0.968 6.688 -1.496 10.032 c-0.176 0.968 0.352 1.32 1.056 1.056 c1.408 -0.528 2.816 -0.44 4.224 -0.088 c0.88 0.176 1.144 -0.088 0.88 -0.968 c-0.352 -0.88 -0.704 -1.848 -0.704 -2.728 c-0.176 -5.192 -2.2 -9.944 -2.64 -15.048 z M71.984 75.944 c0.264 -3.696 -1.76 -6.248 -4.048 -8.888 c-3.52 -3.96 -8.272 -7.04 -10.296 -12.232 c-0.968 -2.464 -1.584 -5.016 -0.528 -7.832 c0.792 -1.848 1.936 -3.168 3.08 -4.664 c2.64 -3.696 9.416 -4.312 13.024 -1.408 c2.64 2.112 4.928 4.84 4.4 8.8 c-0.176 1.144 0 2.376 -0.088 3.608 c-0.176 1.672 -1.32 2.376 -3.168 2.464 s-2.112 -1.056 -2.2 -2.376 c-0.088 -0.88 -0.264 -1.672 -0.088 -2.552 c0.44 -2.992 -1.144 -4.664 -3.52 -5.984 c-1.144 -0.616 -5.456 0.88 -5.544 2.2 c-0.264 2.2 -1.32 4.4 -0.088 6.688 c1.144 2.024 2.992 3.344 4.576 4.928 c0.176 0.264 0.528 0.264 0.792 0.44 c4.928 4.488 9.592 9.328 9.504 16.544 c-0.088 2.464 -0.264 5.28 -1.848 7.568 c-1.232 1.848 -3.168 3.08 -5.192 3.96 c-3.256 1.584 -7.832 0.704 -10.472 -2.2 c-0.88 -0.88 -1.584 -1.936 -2.552 -2.816 c-0.352 -0.352 -0.704 -0.968 -0.704 -1.584 c-0.264 -2.816 -0.616 -5.72 -0.088 -8.536 c0.176 -1.144 1.056 -1.584 2.024 -1.672 c1.496 -0.088 2.552 0.528 2.904 1.936 c0.352 1.232 0.704 2.64 0.44 4.048 c-0.616 2.728 2.376 6.16 5.104 6.16 c1.496 0 4.4 -2.728 4.576 -4.312 l0 -2.288 z M93.896 47.52 c0 4.488 0.176 8.888 -0.088 13.376 c-0.176 3.608 -0.264 7.304 -0.088 10.912 c0.264 4.576 0 9.064 -0.176 13.64 c0 1.496 -0.616 2.2 -2.112 2.376 c-1.408 0.088 -2.64 -0.352 -2.992 -1.936 c-0.44 -2.464 -0.616 -5.016 -0.176 -7.392 c0.528 -2.728 0.088 -5.456 0.264 -8.184 c0.264 -3.432 0.088 -6.864 0.088 -10.296 c0 -1.32 0.264 -2.816 0 -4.048 c-0.704 -3.256 -0.088 -6.424 -0.088 -9.68 c0 -1.144 -0.352 -1.672 -1.496 -1.584 l-3.432 0.264 c-1.232 0 -2.2 -0.44 -2.728 -1.584 c-0.44 -0.792 -0.528 -1.672 0.176 -2.376 c0.88 -0.88 1.496 -2.288 3.168 -1.672 c1.76 0.704 3.608 0.088 5.28 0 c2.904 -0.264 5.808 0.616 8.712 -0.176 c1.936 -0.44 3.52 0.968 3.608 2.816 c0 1.672 -1.32 2.728 -3.256 2.728 c-1.32 0.088 -2.64 0.088 -3.96 0.088 c-0.792 0 -0.88 0.264 -0.792 0.968 c0.088 0.616 0 1.144 0 1.76 l0.088 0 z M117.392 66.616 c-1.848 -0.528 -4.048 0.264 -6.248 -0.176 c-0.792 -0.176 -1.144 0.264 -1.144 0.968 c0 0.352 -0.088 0.792 0 1.056 c0.88 2.376 -0.088 4.928 0.352 7.392 c0.352 1.672 -0.44 3.696 -0.088 5.632 c0.176 0.616 0.176 0.704 0.88 0.792 c3.256 0.616 6.512 0 9.68 0 c1.672 0 3.168 0.44 4.312 1.848 c0.616 0.792 0.528 1.672 0.176 2.552 c-0.264 0.792 -0.968 1.056 -1.848 1.144 c-3.168 0.088 -6.424 0 -9.592 0.264 c-2.024 0.088 -4.048 -0.528 -6.16 0 c-1.76 0.44 -2.816 -0.792 -2.816 -2.552 c-0.088 -3.344 -0.088 -6.6 -0.352 -9.856 c-0.176 -2.64 0 -5.368 0.088 -8.008 c0.088 -4.048 0.264 -8.008 0.088 -11.968 c-0.088 -3.696 -0.176 -7.304 0.088 -11 c0.088 -0.44 0.176 -0.88 0.088 -1.408 c-0.616 -2.464 1.848 -4.928 4.312 -4.048 c2.376 0.792 4.576 0.264 6.864 0.176 c2.464 0 4.84 -0.352 7.304 0.176 c1.672 0.352 2.288 1.408 2.024 3.344 c-0.264 1.496 -1.496 2.376 -2.992 2.288 c-2.464 -0.264 -4.84 -0.704 -7.392 -0.088 c-1.144 0.264 -2.552 0.176 -3.784 0.088 c-1.056 -0.088 -1.32 0.264 -1.232 1.144 c0 0.616 -0.088 1.232 0 1.76 c0.792 3.08 0.352 6.072 0 9.064 c-0.088 1.144 0.528 2.2 0.088 3.432 c-0.176 0.44 0.352 0.792 0.792 0.616 c2.2 -0.968 4.4 0.176 6.688 -0.088 c2.2 -0.352 3.96 0.968 4.048 2.552 c0.088 1.848 -1.408 2.904 -4.224 2.904 z M134.11199999999997 71.72 c0.352 4.488 0 8.888 0 13.288 c0 1.584 -1.408 2.904 -2.728 2.904 s-2.904 -1.848 -2.816 -3.168 c0.264 -4.224 -0.088 -8.36 0.088 -12.496 c0.088 -2.464 -0.616 -4.928 0.088 -7.48 c0.352 -1.232 0.264 -2.728 -0.176 -4.048 c-0.352 -1.144 -0.088 -2.288 0 -3.344 c0.088 -3.168 0.616 -6.424 0.088 -9.504 c-0.352 -2.112 0.352 -4.136 0 -6.248 c-0.264 -1.32 0.968 -2.2 2.376 -2.2 c2.816 -0.176 5.808 -0.528 8.624 -0.176 c3.432 0.44 6.424 1.936 8.184 5.368 c2.112 4.224 2.376 8.624 1.584 13.112 c-0.352 2.376 -1.76 4.048 -3.52 5.456 c-0.968 0.704 -1.496 1.848 -2.728 2.288 c-0.528 0.176 -0.176 0.88 0 1.32 c2.2 5.632 3.696 11.44 6.336 16.896 c0.616 1.32 0.176 2.376 -0.616 3.344 c-0.88 0.88 -1.936 1.144 -3.168 0.88 c-0.528 -0.088 -0.88 -0.352 -1.056 -0.88 c-1.32 -4.928 -3.96 -9.416 -5.192 -14.432 c-0.44 -1.76 -1.232 -3.344 -1.672 -5.104 c-0.352 -1.584 -1.672 -1.232 -2.816 -1.144 s-0.88 1.056 -0.88 1.76 c-0.088 1.232 0 2.464 0 3.608 z M144.05599999999998 51.304 c0.352 -3.432 -1.496 -5.28 -4.84 -6.424 c-1.32 -0.44 -2.376 0.176 -3.432 -0.088 c-1.848 -0.44 -1.848 0.44 -1.76 1.848 c0.176 3.256 0.264 6.6 0.44 9.856 c0 1.232 -0.88 2.64 -0.088 3.696 c0.88 1.056 2.376 0.352 3.608 0.616 c1.672 0.352 5.28 -1.672 5.544 -3.256 c0.264 -2.024 0.968 -3.96 0.528 -6.248 z M167.99199999999996 75.944 c0.264 -3.696 -1.76 -6.248 -4.048 -8.888 c-3.52 -3.96 -8.272 -7.04 -10.296 -12.232 c-0.968 -2.464 -1.584 -5.016 -0.528 -7.832 c0.792 -1.848 1.936 -3.168 3.08 -4.664 c2.64 -3.696 9.416 -4.312 13.024 -1.408 c2.64 2.112 4.928 4.84 4.4 8.8 c-0.176 1.144 0 2.376 -0.088 3.608 c-0.176 1.672 -1.32 2.376 -3.168 2.464 s-2.112 -1.056 -2.2 -2.376 c-0.088 -0.88 -0.264 -1.672 -0.088 -2.552 c0.44 -2.992 -1.144 -4.664 -3.52 -5.984 c-1.144 -0.616 -5.456 0.88 -5.544 2.2 c-0.264 2.2 -1.32 4.4 -0.088 6.688 c1.144 2.024 2.992 3.344 4.576 4.928 c0.176 0.264 0.528 0.264 0.792 0.44 c4.928 4.488 9.592 9.328 9.504 16.544 c-0.088 2.464 -0.264 5.28 -1.848 7.568 c-1.232 1.848 -3.168 3.08 -5.192 3.96 c-3.256 1.584 -7.832 0.704 -10.472 -2.2 c-0.88 -0.88 -1.584 -1.936 -2.552 -2.816 c-0.352 -0.352 -0.704 -0.968 -0.704 -1.584 c-0.264 -2.816 -0.616 -5.72 -0.088 -8.536 c0.176 -1.144 1.056 -1.584 2.024 -1.672 c1.496 -0.088 2.552 0.528 2.904 1.936 c0.352 1.232 0.704 2.64 0.44 4.048 c-0.616 2.728 2.376 6.16 5.104 6.16 c1.496 0 4.4 -2.728 4.576 -4.312 l0 -2.288 z  M205.83199999999997 80.08 c-3.696 0 -6.512 -1.232 -9.064 -3.696 c-1.672 -1.584 -2.112 -3.608 -2.376 -5.808 c-0.264 -2.376 0.264 -4.752 0 -7.128 c-0.352 -3.344 -0.088 -6.6 0.704 -9.856 c0.792 -3.52 3.608 -5.896 7.128 -6.16 c1.232 -0.088 2.112 -1.144 3.08 -0.792 c3.784 0.088 8.36 4.136 9.152 7.568 c0.968 4.224 0.704 8.448 0.616 12.76 c-0.088 1.76 -0.088 3.608 -0.352 5.456 c-0.44 3.696 -5.368 7.568 -8.888 7.656 z M199.58399999999995 57.552 l0 11 c-0.088 3.784 2.288 6.16 5.104 5.984 c2.728 -0.176 4.488 -2.2 4.664 -4.752 c0.264 -3.696 0 -7.48 0.44 -11.176 c0.176 -2.024 -0.264 -4.048 -1.936 -5.28 c-1.584 -1.144 -3.344 -1.408 -5.28 -0.44 c-1.848 1.056 -2.992 2.552 -2.992 4.664 z M196.59199999999996 44.704 c-1.672 -0.264 -2.464 -1.144 -2.464 -2.728 c0 -1.496 1.408 -3.08 2.904 -2.904 c3.344 0.616 6.688 -0.264 10.12 0.264 c1.496 0.264 2.992 0.088 4.576 -0.088 c1.672 -0.176 2.992 0.704 3.256 2.288 c0.264 1.672 -0.528 2.64 -2.464 2.904 c-1.496 0.264 -3.08 0.44 -3.872 0.616 c-4.488 -0.264 -8.272 0.264 -12.056 -0.352 z M212.95999999999995 82.72 c1.232 0.44 2.464 1.144 2.376 2.728 c-0.088 1.32 -1.76 2.64 -3.08 2.64 c-2.112 -0.616 -4.4 0.088 -6.512 -0.44 c-1.144 -0.264 -1.936 0.44 -2.992 0.528 c-2.2 0.176 -4.4 -0.264 -6.512 -0.792 c-1.496 -0.352 -1.848 -1.584 -1.76 -2.904 c0 -1.408 0.88 -2.288 2.112 -2.2 c3.432 0.176 6.952 -0.616 10.384 0.176 c1.936 0.44 4.048 -0.528 5.984 0.264 z M223.43199999999996 39.336 c2.728 -0.616 5.544 0.176 8.36 0 c1.848 -0.176 3.96 0 5.984 0.44 c1.144 0.352 1.672 1.32 1.584 2.376 c-0.088 1.496 -1.056 2.464 -2.552 2.816 c-2.288 0.616 -4.576 0.176 -6.776 -0.176 c-1.848 -0.176 -3.52 0.44 -5.368 0.264 c-0.792 -0.088 -1.144 0.704 -0.88 1.408 c0.792 1.936 0.352 3.96 0.264 5.984 c-0.088 2.376 0 4.84 0 7.304 c0 0.88 0.44 1.496 1.32 1.144 c2.288 -0.792 4.576 0.264 6.864 -0.088 c1.408 -0.176 2.288 0.968 2.552 2.376 c0.264 1.232 -0.176 2.288 -1.584 2.816 c-2.464 0.792 -4.84 1.056 -7.392 0.264 c-1.848 -0.616 -1.848 -0.352 -1.76 1.584 c0.088 3.168 0 6.424 0 9.68 c0.088 2.552 0.264 5.104 -0.088 7.656 c-0.352 2.024 -1.32 2.992 -2.992 2.904 c-1.672 -0.176 -2.992 -1.408 -2.816 -3.344 c0.352 -3.432 0.176 -6.776 0.264 -10.12 c0 -3.168 0.088 -6.336 -0.176 -9.504 c-0.176 -2.464 0.088 -5.016 0.352 -7.48 c0.088 -1.32 0.264 -2.552 -0.176 -3.872 c-0.352 -1.144 0.264 -2.376 0.264 -3.696 c0 -2.2 0 -4.4 -0.088 -6.6 c-0.176 -3.344 0.176 -3.784 3.52 -4.136 l1.32 0 z  M260.03999999999996 73.92 c0.264 -2.64 -0.176 -5.192 -0.264 -7.744 c-0.088 -4.488 0.528 -8.976 0.352 -13.552 c-0.088 -1.584 -0.264 -3.168 -0.088 -4.84 c0.352 -3.344 2.904 -6.6 6.248 -7.656 c1.584 -0.528 3.08 -1.056 4.84 -1.056 c4.664 0 9.064 4.664 9.592 9.064 c0.176 1.848 0.264 3.784 0.264 5.632 c0 1.232 -0.704 2.112 -1.848 2.64 c-1.056 0.44 -2.024 0.088 -2.728 -0.704 c-1.056 -1.056 -1.408 -2.376 -1.232 -3.784 c0.528 -3.52 -0.44 -6.16 -4.4 -7.392 c-1.584 -0.44 -4.4 1.408 -4.664 3.344 c-0.528 3.872 -1.056 7.744 -0.616 11.704 c0.352 3.168 0.352 6.424 -0.088 9.68 c-0.44 2.992 -0.176 5.984 0 8.976 c0.088 2.112 3.432 4.048 5.984 3.696 c1.936 -0.264 3.96 -2.992 3.696 -5.28 c-0.176 -1.32 0.088 -2.464 0.44 -3.696 c0.352 -1.408 1.76 -2.288 3.08 -2.112 c1.496 0.264 2.64 1.672 2.376 3.168 c-0.176 1.056 0 2.112 0.088 3.168 c0.176 2.64 -1.408 4.576 -2.728 6.6 c-1.848 2.816 -4.928 3.256 -7.744 3.96 c-3.08 0.704 -7.832 -2.552 -9.24 -5.28 c-1.32 -2.816 -1.408 -5.632 -1.32 -8.536 z M284.32800000000003 67.32 c-0.792 -4.136 -0.176 -8.184 -0.352 -12.232 c-0.264 -4.136 0.264 -8.184 -0.088 -12.232 c-0.088 -1.672 0.792 -2.904 2.288 -3.608 c1.144 -0.528 1.936 0.176 2.64 0.968 c0.264 0.352 0.528 0.792 0.528 1.144 c-0.088 2.64 0.704 5.28 0.176 8.008 c-0.616 2.992 0.264 5.984 0.088 9.064 c-0.176 2.376 -0.352 4.84 0 7.128 c0.352 3.256 -0.528 6.512 0 9.68 c0.352 1.76 0.352 3.608 0.088 5.368 c-0.176 1.76 0.616 1.496 1.76 1.496 c3.608 -0.176 7.304 -0.44 11 0 c1.672 0.176 2.728 1.32 2.64 2.816 c-0.088 1.408 -1.672 2.904 -3.168 2.728 c-4.84 -0.528 -9.68 0.352 -14.52 0.088 c-2.904 -0.176 -3.872 -1.144 -3.256 -4.048 c0.264 -1.584 -0.088 -3.08 0 -4.664 c0.088 -3.96 -0.792 -7.92 0.176 -11.704 z M319.528 80.08 c-3.696 0 -6.512 -1.232 -9.064 -3.696 c-1.672 -1.584 -2.112 -3.608 -2.376 -5.808 c-0.264 -2.376 0.264 -4.752 0 -7.128 c-0.352 -3.344 -0.088 -6.6 0.704 -9.856 c0.792 -3.52 3.608 -5.896 7.128 -6.16 c1.232 -0.088 2.112 -1.144 3.08 -0.792 c3.784 0.088 8.36 4.136 9.152 7.568 c0.968 4.224 0.704 8.448 0.616 12.76 c-0.088 1.76 -0.088 3.608 -0.352 5.456 c-0.44 3.696 -5.368 7.568 -8.888 7.656 z M313.28000000000003 57.552 l0 11 c-0.088 3.784 2.288 6.16 5.104 5.984 c2.728 -0.176 4.488 -2.2 4.664 -4.752 c0.264 -3.696 0 -7.48 0.44 -11.176 c0.176 -2.024 -0.264 -4.048 -1.936 -5.28 c-1.584 -1.144 -3.344 -1.408 -5.28 -0.44 c-1.848 1.056 -2.992 2.552 -2.992 4.664 z M310.288 44.704 c-1.672 -0.264 -2.464 -1.144 -2.464 -2.728 c0 -1.496 1.408 -3.08 2.904 -2.904 c3.344 0.616 6.688 -0.264 10.12 0.264 c1.496 0.264 2.992 0.088 4.576 -0.088 c1.672 -0.176 2.992 0.704 3.256 2.288 c0.264 1.672 -0.528 2.64 -2.464 2.904 c-1.496 0.264 -3.08 0.44 -3.872 0.616 c-4.488 -0.264 -8.272 0.264 -12.056 -0.352 z M326.656 82.72 c1.232 0.44 2.464 1.144 2.376 2.728 c-0.088 1.32 -1.76 2.64 -3.08 2.64 c-2.112 -0.616 -4.4 0.088 -6.512 -0.44 c-1.144 -0.264 -1.936 0.44 -2.992 0.528 c-2.2 0.176 -4.4 -0.264 -6.512 -0.792 c-1.496 -0.352 -1.848 -1.584 -1.76 -2.904 c0 -1.408 0.88 -2.288 2.112 -2.2 c3.432 0.176 6.952 -0.616 10.384 0.176 c1.936 0.44 4.048 -0.528 5.984 0.264 z M352.96799999999996 42.944 c0 4.664 -0.088 9.328 0 13.992 c0.088 3.784 0.528 7.656 0.264 11.44 c-0.176 3.784 -0.176 7.568 -0.44 11.352 c-0.176 2.816 -4.488 7.304 -7.304 7.92 c-2.904 0.616 -5.456 0.44 -8.184 -0.968 c-2.464 -1.232 -5.72 -6.424 -5.456 -9.24 c0.44 -3.344 0.088 -6.6 0.176 -9.944 c0.088 -2.816 0.088 -5.632 0.264 -8.36 c0.088 -1.496 -0.176 -2.992 -0.264 -4.4 c-0.528 -4.136 0.704 -8.272 -0.088 -12.408 c-0.264 -1.32 1.672 -3.256 2.992 -3.256 c1.584 0 3.08 1.584 2.816 3.168 c-0.528 2.64 0.088 5.192 -0.088 7.832 c-0.176 3.52 0.088 7.128 0.088 10.648 c0.088 4.224 -0.088 8.36 0.176 12.584 c0.088 2.112 -0.44 4.224 0.352 6.336 c0.968 2.464 5.104 3.696 6.952 1.76 c2.112 -2.288 3.52 -4.928 2.2 -8.272 c-0.264 -0.792 -0.088 -1.848 -0.088 -2.728 c0.176 -4.664 0.088 -9.24 0 -13.904 c-0.088 -4.224 0.176 -8.36 0.352 -12.496 c0 -0.88 -0.616 -1.76 -0.176 -2.64 c0.616 -1.232 1.496 -2.376 2.992 -2.2 c1.32 0.088 2.816 2.2 2.464 3.784 z M362.736 39.16 c1.76 -0.176 3.608 0.088 5.368 0.352 c4.664 0.616 9.064 5.456 9.152 10.12 c0.088 4.488 0.616 8.888 0.352 13.288 c-0.44 5.808 0.704 11.704 -0.792 17.424 c-0.176 0.352 -0.176 0.88 -0.352 1.144 c-2.288 2.904 -4.4 5.544 -8.624 6.16 c-2.816 0.44 -5.544 0.352 -8.36 0.176 c-2.2 -0.088 -3.52 -1.848 -3.432 -4.84 c0.088 -3.256 0.616 -6.512 0.352 -9.768 c-0.352 -2.816 0.44 -5.632 0.176 -8.36 c-0.352 -2.904 -0.44 -5.808 -0.44 -8.712 c0 -4.312 0.264 -8.624 0.088 -12.936 c-0.088 -2.904 1.232 -4.048 4.136 -4.048 c0.792 -0.088 1.584 0 2.376 0 z M364.584 44.616 c-0.264 0 -0.528 0.088 -0.704 0 c-1.584 -0.352 -1.848 0.176 -2.112 1.76 c-0.264 1.936 0.264 3.784 0.176 5.72 c-0.176 3.872 -0.528 7.832 -0.176 11.704 c0.44 4.928 -0.088 9.768 0 14.696 c0 1.32 0.352 2.64 0.616 3.784 c0.088 0.704 1.584 -0.088 2.464 0.088 c0.44 0 0.88 0.088 1.32 0.088 c2.112 0.264 4.664 -1.408 5.016 -3.52 c0.352 -2.464 0.792 -5.016 0.704 -7.48 c-0.088 -4.84 0 -9.592 -0.176 -14.344 c-0.088 -2.816 -0.176 -5.544 -0.44 -8.272 c-0.088 -0.88 -0.44 -1.408 -1.056 -2.024 c-1.496 -1.76 -3.432 -2.288 -5.632 -2.2 z"/></g><g id="slogan_text" rel="mainfill" name="slogan_text" xmlns:name="sloganText_mainfill" fill="#FFFFFF" transform="translate(124.01399803161621, 161.07600688934326)"><path d="M2.22 18.94 l6.96 0 c-0.06 0.36 -0.16 0.72 -0.26 1.06 l-8 0 l0 -13.3 l1.3 0 l0 12.24 z M17.520000000000003 14.9 c0 0.44 -0.04 1.08 -0.04 1.08 l-5.64 0 c0.04 1.22 0.18 2.9 0.18 2.9 s1.08 0.26 2 0.26 c1.36 0 2.84 -0.38 3.4 -0.52 c-0.04 0.34 -0.08 0.66 -0.14 0.98 c-0.96 0.38 -2.08 0.6 -3.26 0.6 s-2.2 -0.22 -3.16 -0.6 c-0.22 -1.24 -0.32 -2.64 -0.32 -4.14 c0 -1.48 0.1 -2.88 0.32 -4.12 c0.96 -0.38 1.98 -0.6 3.16 -0.6 s2.22 0.22 3.18 0.6 c0.18 1.08 0.32 2.28 0.32 3.56 z M11.840000000000002 14.9 l4.36 0 c-0.04 -1.22 -0.18 -2.84 -0.18 -2.84 s-1.06 -0.26 -2 -0.26 c-0.92 0 -2 0.26 -2 0.26 s-0.14 1.62 -0.18 2.84 z M25.86 11.34 c0.22 1.24 0.32 2.64 0.32 4.12 c0 1.5 -0.1 2.9 -0.32 4.14 c-0.96 0.38 -1.98 0.6 -3.16 0.6 s-2.2 -0.22 -3.18 -0.6 c0 0 -0.32 -0.9 -0.32 -2.3 c0 -1.38 0.32 -2.28 0.32 -2.28 c0.98 -0.38 2 -0.6 3.18 -0.6 c0.74 0 1.52 0.1 2.16 0.24 c-0.04 -1.18 -0.16 -2.6 -0.16 -2.6 s-1.08 -0.26 -2 -0.26 c-1.36 0 -2.66 0.34 -3.22 0.48 l0.12 -0.94 c0.98 -0.38 1.92 -0.6 3.1 -0.6 s2.2 0.22 3.16 0.6 z M22.7 19.14 c0.92 0 2 -0.26 2 -0.26 s0.16 -1.94 0.18 -3.2 c-0.64 -0.1 -1.42 -0.2 -2.18 -0.2 c-0.94 0 -2 0.26 -2 0.26 s-0.2 0.68 -0.2 1.56 c0 0.9 0.2 1.58 0.2 1.58 s1.06 0.26 2 0.26 z M31.6 10.74 c0.4 0 0.8 0.02 1.2 0.08 c-0.06 0.36 -0.12 0.7 -0.22 1.04 c-0.32 -0.04 -0.66 -0.06 -0.98 -0.06 c-0.94 0 -2.08 0.26 -2.08 0.26 s-0.2 2.2 -0.2 3.4 l0 4.54 l-1.3 0 l0 -4.54 c0 -1.48 0.1 -2.88 0.32 -4.12 c0.96 -0.38 2.08 -0.6 3.26 -0.6 z M35.620000000000005 20 l-1.3 0 l0 -4.54 c0 -1.48 0.1 -2.88 0.32 -4.12 c0.96 -0.38 1.98 -0.6 3.16 -0.6 s2.22 0.22 3.18 0.6 c0.2 1.24 0.32 2.64 0.32 4.12 l0 4.54 l-1.3 0 l0 -4.54 c0 -1.2 -0.2 -3.4 -0.2 -3.4 s-1.06 -0.26 -2 -0.26 c-0.92 0 -2 0.26 -2 0.26 s-0.18 2.2 -0.18 3.4 l0 4.54 z  M54.08 19.14 c0.74 0 1.56 -0.16 1.86 -0.22 c-0.08 0.4 -0.2 0.78 -0.34 1.14 c-0.48 0.1 -0.98 0.14 -1.52 0.14 c-1.18 0 -2.22 -0.22 -3.18 -0.6 c-0.2 -1.24 -0.32 -2.64 -0.32 -4.14 l0 -3.34 l-2 0 c0.08 -0.38 0.18 -0.74 0.32 -1.06 l1.68 0 l0 -2.1 c0.42 -0.14 0.84 -0.26 1.3 -0.34 l0 2.44 l3.68 0 c-0.06 0.36 -0.16 0.72 -0.26 1.06 l-3.42 0 l0 3.36 c0 1.2 0.2 3.4 0.2 3.4 s1.06 0.26 2 0.26 z M63.940000000000005 11.34 c0.22 1.24 0.32 2.64 0.32 4.12 l0 4.54 l-1.3 0 l0 -4.54 c0 -1.2 -0.18 -3.4 -0.18 -3.4 s-1.08 -0.26 -2 -0.26 c-0.7 0 -1.52 0.12 -2.2 0.28 l0 7.92 l-1.3 0 l0 -13.28 c0.46 0.08 0.88 0.18 1.3 0.3 l0 4 c0.68 -0.18 1.4 -0.28 2.2 -0.28 c1.18 0 2.2 0.22 3.16 0.6 z M72.97999999999999 14.9 c0 0.44 -0.04 1.08 -0.04 1.08 l-5.64 0 c0.04 1.22 0.18 2.9 0.18 2.9 s1.08 0.26 2 0.26 c1.36 0 2.84 -0.38 3.4 -0.52 c-0.04 0.34 -0.08 0.66 -0.14 0.98 c-0.96 0.38 -2.08 0.6 -3.26 0.6 s-2.2 -0.22 -3.16 -0.6 c-0.22 -1.24 -0.32 -2.64 -0.32 -4.14 c0 -1.48 0.1 -2.88 0.32 -4.12 c0.96 -0.38 1.98 -0.6 3.16 -0.6 s2.22 0.22 3.18 0.6 c0.18 1.08 0.32 2.28 0.32 3.56 z M67.3 14.9 l4.36 0 c-0.04 -1.22 -0.18 -2.84 -0.18 -2.84 s-1.06 -0.26 -2 -0.26 c-0.92 0 -2 0.26 -2 0.26 s-0.14 1.62 -0.18 2.84 z  M80.67999999999999 6.699999999999999 l8.26 0 c-0.08 0.36 -0.16 0.72 -0.28 1.06 l-6.68 0 l0 4.78 l5.14 0 c-0.06 0.36 -0.16 0.72 -0.26 1.06 l-4.88 0 l0 6.4 l-1.3 0 l0 -13.3 z M96.1 11.04 l1.3 0 l0 4.42 c0 1.5 -0.1 2.9 -0.32 4.14 c-0.96 0.38 -2 0.6 -3.18 0.6 c-1.16 0 -2.2 -0.22 -3.16 -0.6 c-0.22 -1.24 -0.32 -2.64 -0.32 -4.14 l0 -4.42 l1.3 0 l0 4.44 c0 1.2 0.18 3.4 0.18 3.4 s1.08 0.26 2 0.26 c0.94 0 2 -0.26 2 -0.26 s0.2 -2.2 0.2 -3.4 l0 -4.44 z M104.25999999999999 19.14 c0.74 0 1.56 -0.16 1.86 -0.22 c-0.08 0.4 -0.2 0.78 -0.34 1.14 c-0.48 0.1 -0.98 0.14 -1.52 0.14 c-1.18 0 -2.22 -0.22 -3.18 -0.6 c-0.2 -1.24 -0.32 -2.64 -0.32 -4.14 l0 -3.34 l-2 0 c0.08 -0.38 0.18 -0.74 0.32 -1.06 l1.68 0 l0 -2.1 c0.42 -0.14 0.84 -0.26 1.3 -0.34 l0 2.44 l3.68 0 c-0.06 0.36 -0.16 0.72 -0.26 1.06 l-3.42 0 l0 3.36 c0 1.2 0.2 3.4 0.2 3.4 s1.06 0.26 2 0.26 z M113.17999999999999 11.04 l1.3 0 l0 4.42 c0 1.5 -0.1 2.9 -0.32 4.14 c-0.96 0.38 -2 0.6 -3.18 0.6 c-1.16 0 -2.2 -0.22 -3.16 -0.6 c-0.22 -1.24 -0.32 -2.64 -0.32 -4.14 l0 -4.42 l1.3 0 l0 4.44 c0 1.2 0.18 3.4 0.18 3.4 s1.08 0.26 2 0.26 c0.94 0 2 -0.26 2 -0.26 s0.2 -2.2 0.2 -3.4 l0 -4.44 z M119.94 10.74 c0.4 0 0.8 0.02 1.2 0.08 c-0.06 0.36 -0.12 0.7 -0.22 1.04 c-0.32 -0.04 -0.66 -0.06 -0.98 -0.06 c-0.94 0 -2.08 0.26 -2.08 0.26 s-0.2 2.2 -0.2 3.4 l0 4.54 l-1.3 0 l0 -4.54 c0 -1.48 0.1 -2.88 0.32 -4.12 c0.96 -0.38 2.08 -0.6 3.26 -0.6 z M129.54 14.9 c0 0.44 -0.04 1.08 -0.04 1.08 l-5.64 0 c0.04 1.22 0.18 2.9 0.18 2.9 s1.08 0.26 2 0.26 c1.36 0 2.84 -0.38 3.4 -0.52 c-0.04 0.34 -0.08 0.66 -0.14 0.98 c-0.96 0.38 -2.08 0.6 -3.26 0.6 s-2.2 -0.22 -3.16 -0.6 c-0.22 -1.24 -0.32 -2.64 -0.32 -4.14 c0 -1.48 0.1 -2.88 0.32 -4.12 c0.96 -0.38 1.98 -0.6 3.16 -0.6 s2.22 0.22 3.18 0.6 c0.18 1.08 0.32 2.28 0.32 3.56 z M123.86 14.9 l4.36 0 c-0.04 -1.22 -0.18 -2.84 -0.18 -2.84 s-1.06 -0.26 -2 -0.26 c-0.92 0 -2 0.26 -2 0.26 s-0.14 1.62 -0.18 2.84 z"/></g><g id="SvgjsG1010" rel="mainfill" name="symbol" xmlns:name="symbol_mainfill" fill="#FFFFFF" transform="translate(99.33878956286821, -30.627111811381493) scale(1.7981042746606044)"><g xmlns="http://www.w3.org/2000/svg"><path fill="none" d="M76.691,36.415c-2.007,0-3.965,0.36-5.821,1.07l-2.057,0.788l0.088-2.202c0.009-0.215,0.017-0.431,0.017-0.647   c0-8.54-6.833-15.487-15.231-15.487c-7.597,0-14.085,5.768-15.09,13.415l-0.212,1.612l-1.578-0.393   c-0.714-0.178-1.445-0.267-2.173-0.267c-3.301,0-6.363,1.835-7.99,4.789l-0.529,0.961l-1.07-0.248   c-1.084-0.25-2.2-0.378-3.316-0.378c-7.624,0-13.826,5.802-13.826,12.933s6.202,12.934,13.826,12.934   c0.44,0,0.876-0.022,1.305-0.06l0.215-0.019l0.212,0.044c0.114,0.024,0.227,0.035,0.345,0.035h54.915   c0.262,0,0.516-0.06,0.755-0.179l0.175-0.087l0.192-0.038c7.1-1.384,12.254-7.329,12.254-14.137   C92.097,42.892,85.186,36.415,76.691,36.415z"/><path d="M76.691,33.511c-1.674,0-3.319,0.213-4.913,0.634c-0.649-9.546-8.515-17.112-18.09-17.112   c-8.546,0-15.91,6.111-17.709,14.443c-4.438-0.507-8.827,1.583-11.316,5.293c-0.968-0.163-1.951-0.246-2.933-0.246   C12.505,36.524,5,43.628,5,52.361s7.505,15.837,16.729,15.837c0.444,0,0.903-0.019,1.367-0.055   c0.234,0.036,0.473,0.055,0.711,0.055h54.915c0.644,0,1.266-0.131,1.855-0.392C88.945,66.091,95,58.99,95,50.854   C95,41.291,86.786,33.511,76.691,33.511z M79.843,64.991l-0.192,0.038l-0.175,0.087c-0.239,0.118-0.493,0.179-0.755,0.179H23.807   c-0.118,0-0.231-0.011-0.345-0.035l-0.212-0.044l-0.215,0.019c-0.429,0.039-0.865,0.06-1.305,0.06   c-7.624,0-13.826-5.803-13.826-12.934s6.202-12.933,13.826-12.933c1.116,0,2.232,0.128,3.316,0.378l1.07,0.248l0.529-0.961   c1.627-2.953,4.689-4.789,7.99-4.789c0.728,0,1.459,0.09,2.173,0.267l1.578,0.393l0.212-1.612   c1.005-7.647,7.492-13.415,15.09-13.415c8.398,0,15.231,6.947,15.231,15.487c0,0.216-0.009,0.432-0.017,0.647l-0.088,2.202   l2.057-0.788c1.855-0.71,3.813-1.07,5.821-1.07c8.494,0,15.405,6.477,15.405,14.44C92.097,57.663,86.943,63.608,79.843,64.991z"/></g></g>
			</g>
		</svg>
    